<mxfile host="www.draw.io" modified="2019-12-06T07:04:12.936Z" agent="Mozilla/5.0 (Macintosh; Intel Mac OS X 10_13_2) AppleWebKit/537.36 (KHTML, like Gecko) Chrome/72.0.3626.119 Safari/537.36" etag="z0VPxImNJkT34Ej5lEEk" version="12.3.7" type="github" pages="1">
  <diagram id="HB1foXao_2k8xeVR197A" name="Page-1">
    <mxGraphModel dx="473" dy="256" grid="1" gridSize="10" guides="1" tooltips="1" connect="1" arrows="1" fold="1" page="1" pageScale="1" pageWidth="1654" pageHeight="2336" math="0" shadow="0">
      <root>
        <mxCell id="0"/>
        <mxCell id="1" parent="0"/>
        <mxCell id="-rSRdJJcapElQBQnEtXR-1" value="利润策略" style="rounded=1;whiteSpace=wrap;html=1;" vertex="1" parent="1">
          <mxGeometry x="200" y="270" width="90" height="40" as="geometry"/>
        </mxCell>
        <mxCell id="-rSRdJJcapElQBQnEtXR-2" value="回款策略" style="rounded=1;whiteSpace=wrap;html=1;" vertex="1" parent="1">
          <mxGeometry x="310" y="270" width="90" height="40" as="geometry"/>
        </mxCell>
        <mxCell id="-rSRdJJcapElQBQnEtXR-3" value="出房价格" style="rounded=1;whiteSpace=wrap;html=1;" vertex="1" parent="1">
          <mxGeometry x="90" y="270" width="90" height="40" as="geometry"/>
        </mxCell>
        <mxCell id="-rSRdJJcapElQBQnEtXR-4" value="普租价格" style="rounded=1;whiteSpace=wrap;html=1;" vertex="1" parent="1">
          <mxGeometry x="420" y="270" width="90" height="40" as="geometry"/>
        </mxCell>
      </root>
    </mxGraphModel>
  </diagram>
</mxfile>
